<svg width="531" height="178" viewBox="0 0 531 178" fill="none" xmlns="http://www.w3.org/2000/svg">
<rect width="531" height="178" fill="#1E1E1E"/>
<rect width="531" height="178" rx="50" fill="#F67025"/>
<path d="M112.2 96.7C112.333 98.8333 112.4 100.867 112.4 102.8C112.4 104.667 112.333 106.667 112.2 108.8C112.2 109.6 112.2 110.5 112.2 111.5C112.2 112.5 112.133 113.467 112 114.4C111.867 115.333 111.633 116.2 111.3 117C110.967 117.8 110.467 118.433 109.8 118.9C109 119.433 108.1 119.8 107.1 120C106.1 120.133 105.167 120.067 104.3 119.8C103.433 119.533 102.667 119.033 102 118.3C101.4 117.567 101.067 116.533 101 115.2C100.8 112.133 100.7 109.067 100.7 106C100.7 104.467 100.667 103 100.6 101.6C100.6 100.2 100.633 98.2333 100.7 95.7C100.7 94.4333 100.6 93 100.4 91.4C100.2 89.7333 99.7 88.5667 98.9 87.9C98.3 87.3667 97.6333 87.0667 96.9 87C96.1667 86.8667 95.4333 86.9333 94.7 87.2C94.0333 87.4667 93.4333 87.9667 92.9 88.7C92.3667 89.3667 92 90.2333 91.8 91.3C91.8 92.1667 91.7667 93.0667 91.7 94C91.7 94.8667 91.7333 95.7 91.8 96.5C91.8667 98.6333 91.9 100.667 91.9 102.6C91.9 104.467 91.8667 106.467 91.8 108.6C91.7333 109.467 91.7 110.4 91.7 111.4C91.7667 112.4 91.7667 113.4 91.7 114.4C91.6333 115.333 91.4333 116.2 91.1 117C90.8333 117.8 90.3333 118.433 89.6 118.9C88.8 119.433 87.9333 119.767 87 119.9C86.1333 119.967 85.3 119.833 84.5 119.5C83.7667 119.1 83.1 118.5 82.5 117.7C81.9667 116.9 81.6667 115.833 81.6 114.5C81.4667 112.967 81.3667 111.567 81.3 110.3C81.3 108.967 81.3 107.567 81.3 106.1C81.3 104.567 81.3333 103 81.4 101.4C81.4667 99.7333 81.4333 98.1333 81.3 96.6C81.3 96.1333 81.2667 95.6 81.2 95C81.2 94.3333 81.1667 93.6667 81.1 93C81.1 92.3333 81.0333 91.7 80.9 91.1C80.8333 90.4333 80.7 89.9 80.5 89.5C79.9667 88.5667 79 87.9667 77.6 87.7C76.2667 87.4333 75.1333 87.5333 74.2 88C73.2667 88.4667 72.5667 89.0667 72.1 89.8C71.6333 90.5333 71.3 91.3333 71.1 92.2C70.9 93.0667 70.8 94 70.8 95C70.8 95.9333 70.8 96.8333 70.8 97.7C70.8 102.033 70.8 105.8 70.8 109C70.8667 112.133 70.5333 114.667 69.8 116.6C69.4667 117.6 68.7667 118.367 67.7 118.9C66.7 119.433 65.6 119.7 64.4 119.7C63.2667 119.7 62.2 119.433 61.2 118.9C60.2 118.367 59.5333 117.533 59.2 116.4C59 115.667 58.8 114.633 58.6 113.3C58.4667 111.9 58.3667 110.367 58.3 108.7C58.2333 107.033 58.2 105.367 58.2 103.7C58.2 101.967 58.2 100.4 58.2 99V84.6C58.1333 83.0667 58.1 81.4 58.1 79.6C58.1 77.8 58.3667 76.1667 58.9 74.7C59.3667 73.4333 60.1 72.6333 61.1 72.3C62.1 71.9 63.1333 71.7333 64.2 71.8C65.4 71.8 66.3333 72.1333 67 72.8C67.7333 73.4 68.2667 74.1667 68.6 75.1C68.9333 75.9667 69.1333 76.9667 69.2 78.1C69.2667 79.1667 69.3333 80.2 69.4 81.2C70.1333 79.5333 71 78.1667 72 77.1C73.0667 75.9667 74.5667 75.2333 76.5 74.9C81.4333 73.9667 85.3667 75.2333 88.3 78.7C89.6333 77.3667 91.3333 76.2667 93.4 75.4C95 74.8 96.6333 74.5333 98.3 74.6C99.9667 74.6 101.533 74.9 103 75.5C104.533 76.1 105.9 76.9667 107.1 78.1C108.367 79.2333 109.367 80.6 110.1 82.2C111.1 84.3333 111.667 86.7 111.8 89.3C111.933 91.9 112.067 94.3667 112.2 96.7ZM133.302 74.8C135.502 73.7333 137.802 72.9667 140.202 72.5C142.602 72.0333 144.969 71.9333 147.302 72.2C149.702 72.4667 152.002 73.1 154.202 74.1C156.469 75.1 158.536 76.5 160.402 78.3C161.936 79.8333 163.269 81.7 164.402 83.9C165.536 86.0333 166.369 88.1333 166.902 90.2C168.036 93.8667 168.202 97.5667 167.402 101.3C166.602 105.033 165.236 108.5 163.302 111.7C162.369 113.167 161.202 114.5 159.802 115.7C158.469 116.833 157.036 117.767 155.502 118.5C153.502 119.433 151.336 120.067 149.002 120.4C146.669 120.8 144.402 120.9 142.202 120.7C138.202 120.5 134.669 119.5 131.602 117.7C128.602 115.9 126.169 113.6 124.302 110.8C122.502 108 121.302 104.833 120.702 101.3C120.169 97.7 120.402 94.0333 121.402 90.3C122.469 86.3 124.002 83.0667 126.002 80.6C128.069 78.0667 130.502 76.1333 133.302 74.8ZM136.302 88.2C135.302 89.1333 134.536 90.3 134.002 91.7C133.469 93.1 133.136 94.5667 133.002 96.1C132.869 97.5667 132.969 99.0667 133.302 100.6C133.702 102.067 134.302 103.4 135.102 104.6C135.769 105.6 136.969 106.433 138.702 107.1C140.436 107.767 142.236 108.167 144.102 108.3C146.236 108.433 148.102 107.867 149.702 106.6C151.302 105.267 152.502 103.633 153.302 101.7C154.169 99.7667 154.569 97.6667 154.502 95.4C154.436 93.1333 153.836 91.0667 152.702 89.2C151.902 87.8667 150.769 86.9 149.302 86.3C147.902 85.6333 146.402 85.3 144.802 85.3C143.269 85.2333 141.736 85.4667 140.202 86C138.669 86.4667 137.369 87.2 136.302 88.2ZM217.051 76.2C217.317 77 217.384 77.9 217.251 78.9C217.117 79.9 216.884 80.9333 216.551 82C216.217 83 215.817 84 215.351 85C214.951 85.9333 214.584 86.7667 214.251 87.5C212.517 91.0333 210.884 94.5 209.351 97.9C207.817 101.3 206.017 105 203.951 109C203.551 109.8 203.084 110.767 202.551 111.9C202.084 112.967 201.551 114.033 200.951 115.1C200.351 116.1 199.684 117.033 198.951 117.9C198.284 118.767 197.551 119.4 196.751 119.8C196.084 120.2 195.417 120.367 194.751 120.3C194.217 120.433 193.617 120.267 192.951 119.8C192.151 119.4 191.384 118.767 190.651 117.9C189.984 117.033 189.351 116.1 188.751 115.1C188.151 114.033 187.584 112.967 187.051 111.9C186.584 110.767 186.151 109.8 185.751 109C184.951 107.467 184.184 106.033 183.451 104.7C182.784 103.367 182.051 101.933 181.251 100.4C180.517 98.8 179.684 97 178.751 95C177.817 92.9333 176.717 90.4333 175.451 87.5C175.117 86.7 174.751 85.8667 174.351 85C173.951 84.1333 173.584 83.2 173.251 82.2C172.984 81.2 172.784 80.2 172.651 79.2C172.584 78.1333 172.651 77.0667 172.851 76C173.051 75 173.551 74.2 174.351 73.6C175.151 73 176.051 72.6 177.051 72.4C178.051 72.2 179.051 72.2333 180.051 72.5C181.051 72.7 181.851 73.1333 182.451 73.8C183.051 74.4 183.617 75.2 184.151 76.2C184.684 77.2 185.184 78.2667 185.651 79.4C186.184 80.4667 186.651 81.5667 187.051 82.7C187.517 83.7667 187.951 84.7 188.351 85.5C189.284 87.4333 190.317 89.5333 191.451 91.8C192.651 94.0667 193.717 96.1667 194.651 98.1C195.317 96.5667 195.917 95.3 196.451 94.3C196.984 93.2333 197.484 92.2 197.951 91.2C198.484 90.2 199.017 89.1 199.551 87.9C200.151 86.7 200.884 85.1667 201.751 83.3C202.551 81.5667 203.351 79.8667 204.151 78.2C205.017 76.5333 206.051 75.0667 207.251 73.8C207.851 73.1333 208.617 72.7 209.551 72.5C210.484 72.2333 211.451 72.2 212.451 72.4C213.451 72.6 214.351 73.0333 215.151 73.7C216.017 74.3 216.651 75.1333 217.051 76.2ZM237.983 82.1C237.983 83.9667 237.983 86.0667 237.983 88.4C238.049 90.7333 238.083 93.1667 238.083 95.7C238.083 98.1667 238.083 100.633 238.083 103.1C238.083 105.5 238.049 107.733 237.983 109.8C237.916 110.8 237.816 111.9 237.683 113.1C237.549 114.233 237.283 115.3 236.883 116.3C236.483 117.3 235.849 118.133 234.983 118.8C234.183 119.4 233.083 119.667 231.683 119.6C229.616 119.467 228.116 118.567 227.183 116.9C226.316 115.233 225.816 112.9 225.683 109.9C225.683 108.367 225.649 106.6 225.583 104.6C225.583 102.6 225.549 100.567 225.483 98.5C225.483 96.4333 225.483 94.4333 225.483 92.5C225.483 90.5 225.483 88.7 225.483 87.1C225.483 86.1667 225.449 85.0333 225.383 83.7C225.383 82.3667 225.416 81 225.483 79.6C225.549 78.2 225.716 76.8667 225.983 75.6C226.249 74.2667 226.683 73.1667 227.283 72.3C227.749 71.7667 228.416 71.3667 229.283 71.1C230.149 70.7667 231.049 70.6 231.983 70.6C232.983 70.6 233.916 70.7667 234.783 71.1C235.716 71.4333 236.383 71.9 236.783 72.5C237.049 72.9 237.249 73.4667 237.383 74.2C237.516 74.9333 237.616 75.7667 237.683 76.7C237.816 77.5667 237.883 78.5 237.883 79.5C237.949 80.4333 237.983 81.3 237.983 82.1ZM234.183 61.9C232.116 62.4333 230.383 62.2333 228.983 61.3C227.649 60.3 226.816 58.8333 226.483 56.9C226.216 55.5 226.316 54.2667 226.783 53.2C227.249 52.1333 227.949 51.3333 228.883 50.8C229.816 50.2 230.883 49.9333 232.083 50C233.283 50.0667 234.483 50.5333 235.683 51.4C236.816 52.2 237.616 53.1333 238.083 54.2C238.616 55.2667 238.783 56.3 238.583 57.3C238.449 58.3 238.016 59.2333 237.283 60.1C236.549 60.9 235.516 61.5 234.183 61.9ZM281.37 106.3C282.17 106.1 282.97 105.967 283.77 105.9C284.636 105.833 285.403 105.933 286.07 106.2C286.803 106.467 287.403 106.933 287.87 107.6C288.336 108.2 288.57 109.067 288.57 110.2C288.57 111 288.37 111.767 287.97 112.5C287.57 113.233 287.07 113.9 286.47 114.5C285.87 115.1 285.203 115.633 284.47 116.1C283.736 116.5 283.036 116.833 282.37 117.1C280.436 117.967 278.203 118.633 275.67 119.1C273.203 119.567 270.636 119.733 267.97 119.6C264.37 119.467 260.903 118.767 257.57 117.5C254.303 116.167 251.736 114 249.87 111C248.136 108.067 247.103 104.8 246.77 101.2C246.436 97.6 246.603 94.2 247.27 91C248.003 87.1333 249.236 84 250.97 81.6C252.77 79.1333 254.903 77.1667 257.37 75.7C260.37 73.9667 263.736 73.0667 267.47 73C271.203 72.9333 274.77 73.6667 278.17 75.2C280.436 76.2 282.47 77.5667 284.27 79.3C286.07 80.9667 287.436 83 288.37 85.4C288.636 86 288.836 86.7333 288.97 87.6C289.17 88.4667 289.303 89.4 289.37 90.4C289.436 91.3333 289.436 92.2667 289.37 93.2C289.303 94.1333 289.136 94.9667 288.87 95.7C288.47 96.9 287.97 97.8333 287.37 98.5C286.77 99.1667 286.003 99.6667 285.07 100C284.136 100.333 283.003 100.567 281.67 100.7C280.403 100.767 278.87 100.833 277.07 100.9C275.47 100.967 273.97 101 272.57 101C271.17 101 269.736 101 268.27 101C266.803 100.933 265.27 100.9 263.67 100.9C262.136 100.833 260.403 100.767 258.47 100.7C258.27 102.033 258.436 103.2 258.97 104.2C259.57 105.133 260.37 105.933 261.37 106.6C262.37 107.2 263.503 107.667 264.77 108C266.036 108.333 267.27 108.533 268.47 108.6C270.736 108.733 272.903 108.567 274.97 108.1C277.036 107.567 279.17 106.967 281.37 106.3ZM277.07 86.9C275.803 85.4333 274.47 84.3667 273.07 83.7C272.003 83.2333 270.87 83.0333 269.67 83.1C268.536 83.1 267.436 83.2667 266.37 83.6C264.436 84.0667 262.803 85.0667 261.47 86.6C261.336 86.7333 261.103 87.0667 260.77 87.6C260.436 88.0667 260.103 88.5667 259.77 89.1C259.503 89.6333 259.303 90.1333 259.17 90.6C259.036 91.0667 259.103 91.3 259.37 91.3H278.97C278.903 90.3667 278.736 89.6 278.47 89C278.203 88.3333 277.736 87.6333 277.07 86.9ZM335.13 77.9C337.13 76.9 339.23 76.2 341.43 75.8C343.63 75.3333 345.796 75.2333 347.93 75.5C350.13 75.7 352.23 76.2667 354.23 77.2C356.23 78.0667 358.096 79.3333 359.83 81C361.563 82.7333 362.896 84.6333 363.83 86.7C364.763 88.7667 365.43 91.0667 365.83 93.6C366.096 95.3333 366.53 96.9333 367.13 98.4C367.73 99.8667 368.363 101.333 369.03 102.8C369.763 104.267 370.43 105.733 371.03 107.2C371.696 108.667 372.23 110.2 372.63 111.8C372.963 113.333 372.83 114.833 372.23 116.3C371.696 117.7 370.563 118.567 368.83 118.9C367.83 119.1 366.863 119.033 365.93 118.7C365.063 118.3 364.263 117.767 363.53 117.1C362.796 116.367 362.13 115.6 361.53 114.8C360.996 113.933 360.496 113.133 360.03 112.4C358.496 114.4 356.83 115.967 355.03 117.1C353.23 118.167 351.063 118.867 348.53 119.2C346.396 119.467 344.363 119.533 342.43 119.4C340.496 119.267 338.43 118.9 336.23 118.3C333.363 117.567 330.996 116.3 329.13 114.5C327.33 112.633 325.93 110.5 324.93 108.1C323.996 105.633 323.496 103 323.43 100.2C323.363 97.4 323.696 94.6333 324.43 91.9C325.363 88.3 326.763 85.3667 328.63 83.1C330.496 80.8333 332.663 79.1 335.13 77.9ZM337.63 89.6C336.696 90.5333 335.963 91.6333 335.43 92.9C334.896 94.1667 334.563 95.5 334.43 96.9C334.363 98.3 334.496 99.7 334.83 101.1C335.163 102.5 335.696 103.733 336.43 104.8C337.096 105.733 338.23 106.533 339.83 107.2C341.43 107.8 343.096 108.167 344.83 108.3C346.83 108.433 348.563 107.9 350.03 106.7C351.563 105.5 352.696 104 353.43 102.2C354.23 100.333 354.596 98.3667 354.53 96.3C354.463 94.1667 353.896 92.2333 352.83 90.5C352.03 89.2333 350.963 88.3 349.63 87.7C348.363 87.1 346.996 86.8 345.53 86.8C344.063 86.7333 342.596 86.9667 341.13 87.5C339.73 87.9667 338.563 88.6667 337.63 89.6ZM408.949 75C410.883 75.8 412.649 76.9667 414.249 78.5C415.849 79.9667 417.216 81.6667 418.349 83.6C419.549 85.5333 420.449 87.6333 421.049 89.9C421.716 92.1 422.049 94.3333 422.049 96.6C422.116 100 421.316 103.2 419.649 106.2C418.049 109.2 415.416 111.5 411.749 113.1C408.949 114.233 406.049 115.1 403.049 115.7C400.116 116.233 397.049 116.6 393.849 116.8V135.1C393.849 135.5 393.783 135.867 393.649 136.2C393.583 136.533 393.549 136.867 393.549 137.2C393.416 137.867 393.249 138.467 393.049 139C392.916 139.533 392.716 140.1 392.449 140.7C392.183 141.1 391.916 141.467 391.649 141.8C391.383 142.133 391.083 142.467 390.749 142.8C389.149 143.6 387.483 143.767 385.749 143.3C384.683 143.233 383.816 142.9 383.149 142.3C382.549 141.7 382.116 141.067 381.849 140.4C381.583 139.733 381.349 138.967 381.149 138.1C381.083 137.767 381.016 137.433 380.949 137.1C380.949 136.833 380.949 136.533 380.949 136.2V80.5C380.949 80.1 380.949 79.7 380.949 79.3C381.016 78.8333 381.083 78.3667 381.149 77.9C381.216 77.1 381.416 76.3 381.749 75.5C382.349 73.8333 383.583 72.7 385.449 72.1C387.316 71.5 389.416 71.2333 391.749 71.3C393.349 71.3667 394.983 71.5333 396.649 71.8C398.383 72.0667 400.016 72.4 401.549 72.8C403.149 73.1333 404.583 73.5 405.849 73.9C407.116 74.3 408.149 74.6667 408.949 75ZM409.149 96.6C409.416 94.7333 409.183 93.1667 408.449 91.9C407.783 90.5667 406.816 89.5 405.549 88.7C404.283 87.8333 402.816 87.1667 401.149 86.7C399.549 86.2333 397.949 85.9 396.349 85.7C396.149 85.6333 395.816 85.6 395.349 85.6C394.949 85.6 394.483 85.6 393.949 85.6C393.949 87.7333 393.949 89.8 393.949 91.8C394.016 93.7333 394.016 95.8333 393.949 98.1V104.8C395.483 104.733 397.083 104.567 398.749 104.3C400.483 104.033 402.083 103.6 403.549 103C405.016 102.4 406.249 101.6 407.249 100.6C408.316 99.6 408.949 98.2667 409.149 96.6ZM458.168 75C460.101 75.8 461.868 76.9667 463.468 78.5C465.068 79.9667 466.435 81.6667 467.568 83.6C468.768 85.5333 469.668 87.6333 470.268 89.9C470.935 92.1 471.268 94.3333 471.268 96.6C471.335 100 470.535 103.2 468.868 106.2C467.268 109.2 464.635 111.5 460.968 113.1C458.168 114.233 455.268 115.1 452.268 115.7C449.335 116.233 446.268 116.6 443.068 116.8V135.1C443.068 135.5 443.001 135.867 442.868 136.2C442.801 136.533 442.768 136.867 442.768 137.2C442.635 137.867 442.468 138.467 442.268 139C442.135 139.533 441.935 140.1 441.668 140.7C441.401 141.1 441.135 141.467 440.868 141.8C440.601 142.133 440.301 142.467 439.968 142.8C438.368 143.6 436.701 143.767 434.968 143.3C433.901 143.233 433.035 142.9 432.368 142.3C431.768 141.7 431.335 141.067 431.068 140.4C430.801 139.733 430.568 138.967 430.368 138.1C430.301 137.767 430.235 137.433 430.168 137.1C430.168 136.833 430.168 136.533 430.168 136.2V80.5C430.168 80.1 430.168 79.7 430.168 79.3C430.235 78.8333 430.301 78.3667 430.368 77.9C430.435 77.1 430.635 76.3 430.968 75.5C431.568 73.8333 432.801 72.7 434.668 72.1C436.535 71.5 438.635 71.2333 440.968 71.3C442.568 71.3667 444.201 71.5333 445.868 71.8C447.601 72.0667 449.235 72.4 450.768 72.8C452.368 73.1333 453.801 73.5 455.068 73.9C456.335 74.3 457.368 74.6667 458.168 75ZM458.368 96.6C458.635 94.7333 458.401 93.1667 457.668 91.9C457.001 90.5667 456.035 89.5 454.768 88.7C453.501 87.8333 452.035 87.1667 450.368 86.7C448.768 86.2333 447.168 85.9 445.568 85.7C445.368 85.6333 445.035 85.6 444.568 85.6C444.168 85.6 443.701 85.6 443.168 85.6C443.168 87.7333 443.168 89.8 443.168 91.8C443.235 93.7333 443.235 95.8333 443.168 98.1V104.8C444.701 104.733 446.301 104.567 447.968 104.3C449.701 104.033 451.301 103.6 452.768 103C454.235 102.4 455.468 101.6 456.468 100.6C457.535 99.6 458.168 98.2667 458.368 96.6Z" fill="#1E1E1E"/>
</svg>
